<?xml version="1.0" encoding="UTF-8"?>
<svg width="100px" height="100px" viewBox="0 0 100 100" version="1.1" xmlns="http://www.w3.org/2000/svg" xmlns:xlink="http://www.w3.org/1999/xlink">
    <!-- Generator: Sketch 43.2 (39069) - http://www.bohemiancoding.com/sketch -->
    <title>Order a Bin</title>
    <desc>Created with Sketch.</desc>
    <defs>
        <circle id="path-1" cx="50" cy="50" r="50"></circle>
        <path d="M19.2857143,62.8888889 C19.2857143,66.5555556 22.2428571,69.5555556 25.8571429,69.5555556 L52.1428571,69.5555556 C55.7571429,69.5555556 58.7142857,66.5555556 58.7142857,62.8888889 L58.7142857,22.8888889 L19.2857143,22.8888889 L19.2857143,62.8888889 L19.2857143,62.8888889 Z M50.5,12.8888889 L47.2142857,9.55555556 L30.7857143,9.55555556 L27.5,12.8888889 L16,12.8888889 L16,19.5555556 L62,19.5555556 L62,12.8888889 L50.5,12.8888889 Z" id="path-3"></path>
        <filter x="-1.1%" y="-0.8%" width="104.3%" height="103.3%" filterUnits="objectBoundingBox" id="filter-4">
            <feOffset dx="1" dy="1" in="SourceAlpha" result="shadowOffsetOuter1"></feOffset>
            <feColorMatrix values="0 0 0 0 0.235294118   0 0 0 0 0.235294118   0 0 0 0 0.235294118  0 0 0 0.25 0" type="matrix" in="shadowOffsetOuter1"></feColorMatrix>
        </filter>
        <polygon id="path-5" points="49 48.3594466 49 41.6405534 42.3594466 41.6405534 42.3594466 35 35.6405534 35 35.6405534 41.6405534 29 41.6405534 29 48.3594466 35.6405534 48.3594466 35.6405534 55 42.3594466 55 42.3594466 48.3594466"></polygon>
        <filter x="-2.5%" y="-2.5%" width="105.0%" height="105.0%" filterUnits="objectBoundingBox" id="filter-6">
            <feOffset dx="1" dy="1" in="SourceAlpha" result="shadowOffsetInner1"></feOffset>
            <feComposite in="shadowOffsetInner1" in2="SourceAlpha" operator="arithmetic" k2="-1" k3="1" result="shadowInnerInner1"></feComposite>
            <feColorMatrix values="0 0 0 0 0   0 0 0 0 0   0 0 0 0 0  0 0 0 0.25 0" type="matrix" in="shadowInnerInner1"></feColorMatrix>
        </filter>
    </defs>
    <g id="Symbols" stroke="none" stroke-width="1" fill="none" fill-rule="evenodd">
        <g id="Order-a-Bin">
            <g id="Missed-bin-icon">
                <mask id="mask-2" fill="white">
                    <use xlink:href="#path-1"></use>
                </mask>
                <use id="Oval" fill="#009688" xlink:href="#path-1"></use>
                <polygon id="Rectangle" fill="#00796B" mask="url(#mask-2)" points="66.5762449 25.3432621 71.0961099 22.6169078 151.407659 95.1160339 118.384963 145.082405 30.8780162 78.4796601 30.8780162 35.2197398 25.129006 29.5036712 26.7526724 26.29415"></polygon>
                <g id="ic_delete_forever_black_24px" mask="url(#mask-2)">
                    <g transform="translate(9.000000, 9.444444)" id="Group">
                        <g>
                            <polygon id="Shape" points="0 0 80 0 80 80 0 80"></polygon>
                            <g id="Shape">
                                <use fill="black" fill-opacity="1" filter="url(#filter-4)" xlink:href="#path-3"></use>
                                <use fill="#FFFFFF" fill-rule="evenodd" xlink:href="#path-3"></use>
                            </g>
                            <g id="Path">
                                <use fill="#00796B" fill-rule="evenodd" xlink:href="#path-5"></use>
                                <use fill="black" fill-opacity="1" filter="url(#filter-6)" xlink:href="#path-5"></use>
                            </g>
                        </g>
                    </g>
                </g>
            </g>
        </g>
    </g>
</svg>